{"title":"Dawn of the Dead (1978) extended version","uid":5256774,"size":1819266998,"categoryP":"video","categoryS":"movies","magnet":"?xt=urn:btih:38daa0defbbf1ced5ecfb985000f9656f1d2381d&amp;dn=Dawn+of+the+Dead+%281978%29+extended+version&amp;tr=udp%3A%2F%2Ftracker.openbittorrent.com%3A80&amp;tr=udp%3A%2F%2Fopen.demonii.com%3A1337&amp;tr=udp%3A%2F%2Ftracker.coppersurfer.tk%3A6969&amp;tr=udp%3A%2F%2Fexodus.desync.com%3A6969","seeders":0,"leechers":1,"uploader":"Beebe85","files":-1,"time":1262578684,"description":"Complete name                    : Dawn of the Dead (1978) extended version.avi\nFormat                           : AVI\nFormat/Info                      : Audio Video Interleave\nFile size                        : 1.66 GiB\nDuration                         : 2h 19mn\nOverall bit rate                 : 1702 Kbps\nMovie name                       : Dawn of the Dead (1978) extended version DVDRip\nWriting application              : Lavf52.33.0\nOriginal source form/Name        : DAWN_D2\n\nVideo\nID                               : 0\nFormat                           : MPEG-4 Visual\nFormat profile                   : Simple@L3\nFormat settings, BVOP            : No\nFormat settings, QPel            : No\nFormat settings, GMC             : No warppoints\nFormat settings, Matrix          : Default (H.263)\nCodec ID                         : XVID\nCodec ID/Hint                    : XviD\nDuration                         : 2h 19mn\nBit rate                         : 1499 Kbps\nWidth                            : 720 pixels\nHeight                           : 400 pixels\nDisplay aspect ratio             : 16:9\nFrame rate                       : 23.976 fps\nResolution                       : 24 bits\nColorimetry                      : 4:2:0\nScan type                        : Progressive\nBits/(Pixel*Frame)               : 0.217\nStream size                      : 1.46 GiB (88%)\nWriting library                  : XviD 1.2.1 (UTC 2008-12-04)\n\nAudio\nID                               : 1\nFormat                           : AC-3\nFormat/Info                      : Audio Coding 3\nCodec ID                         : 2000\nDuration                         : 2h 19mn\nBit rate mode                    : Constant\nBit rate                         : 192 Kbps\nChannel(s)                       : 2 channels\nChannel positions                : L R\nSampling rate                    : 48.0 KHz\nStream size                      : 191 MiB (11%)\nAlignment                        : Aligned on interleaves\nInterleave, duration             : 32 ms (0.77 video frame)\n\nNO subs\n\n &lt;a href=&quot;\nhttp://www.imdb.com/title/tt0077402/&quot; rel=&quot;nofollow&quot; target=&quot;_NEW&quot;&gt;\nhttp://www.imdb.com/title/tt0077402/&lt;/a&gt;\n\n\n\n\n","torrent":{"xt":"urn:btih:38daa0defbbf1ced5ecfb985000f9656f1d2381d","amp;dn":"Dawn+of+the+Dead+%281978%29+extended+version","amp;tr":["udp%3A%2F%2Ftracker.openbittorrent.com%3A80","udp%3A%2F%2Fopen.demonii.com%3A1337","udp%3A%2F%2Ftracker.coppersurfer.tk%3A6969","udp%3A%2F%2Fexodus.desync.com%3A6969"],"infoHash":"38daa0defbbf1ced5ecfb985000f9656f1d2381d","infoHashBuffer":{"type":"Buffer","data":[56,218,160,222,251,191,28,237,94,207,185,133,0,15,150,86,241,210,56,29]},"announce":[],"urlList":[]}}